<svg xmlns="http://www.w3.org/2000/svg" width="30" height="30" fill="none" viewBox="0 0 30 30">
    <rect width="29" height="29" x=".5" y=".5" fill="#F2F2F2" stroke="#F2F2F2" rx="2.5"/>
    <path fill="#ED3833" d="M20.125 16.46l.008.008L15 22l-5.133-5.532.008-.009a4.106 4.106 0 0 1-.872-2.699 4.061 4.061 0 0 1 1.064-2.618 3.51 3.51 0 0 1 2.431-1.14A3.472 3.472 0 0 1 15 10.95a3.472 3.472 0 0 1 2.502-.947 3.51 3.51 0 0 1 2.431 1.14 4.061 4.061 0 0 1 1.064 2.617 4.106 4.106 0 0 1-.872 2.7z"/>
</svg>
