<svg xmlns="http://www.w3.org/2000/svg" width="25" height="25" fill="none" viewBox="0 0 25 25">
    <g clip-path="url(#prefix__clip0)">
        <path fill="#000" d="M12.5 0C5.6 0 0 5.6 0 12.5S5.6 25 12.5 25 25 19.4 25 12.5 19.4 0 12.5 0zm0 .52c6.619 0 11.98 5.36 11.98 11.98 0 6.619-5.361 11.979-11.98 11.979-6.619 0-11.98-5.36-11.98-11.98C.52 5.882 5.882.522 12.5.522zm6.44 5.212c-.311.005-.623.127-.86.363-.227.228-.312.48-.348.658-.036.179-.063.25-.043.23L6.602 17.081l.018-.016c-.1.076-.187.16-.26.25-.026.034-.045.074-.052.118-.2.313-.26.67-.18.995.09.365.31.692.595.938s.642.416 1.021.424c.38.01.776-.165 1.06-.54L18.886 8.177c-.02.02.068-.015.245-.054.178-.04.426-.12.641-.336.474-.474.49-1.246.022-1.714-.234-.234-.544-.347-.855-.342zm.003.517c.176-.004.351.063.482.194.263.263.259.697-.022.978-.126.126-.244.164-.386.195-.14.031-.325.018-.501.194l-.008.008-2.015 2.214-.657-.657 2.213-2.016.008-.008c.176-.176.158-.362.184-.494.027-.132.06-.246.208-.394.14-.14.318-.211.494-.214zm-3.492 3.478l.692.692-7.738 8.502-.016.017c-.198.262-.406.34-.633.335-.228-.006-.482-.116-.692-.297-.21-.182-.372-.43-.43-.67-.06-.239-.032-.456.134-.663l.004-.006c.043-.053.095-.105.162-.155l.018-.014 8.499-7.741zm-8.455 1.048c-1.272 0-2.308 1.037-2.309 2.309 0 1.271 1.036 2.307 2.308 2.307 1.271 0 2.309-1.037 2.309-2.308 0-1.272-1.037-2.309-2.308-2.308zm0 .52c.338 0 .65.1.92.26l-.076.236.495.16.01-.032c.27.313.438.716.438 1.163 0 .45-.17.855-.444 1.169l-.082-.322-.001-.006-.005-.034-.515.083.006.039.002.012.003.012.097.378.002.011.004.012.06.175c-.268.16-.578.258-.914.258-.337 0-.648-.097-.916-.257l.061-.176.003-.011.003-.01.097-.38.002-.012.002-.01.007-.04-.515-.082-.002.016v.006l-.087.34c-.273-.314-.443-.719-.443-1.17 0-.447.169-.851.439-1.164l.01.032.495-.16-.075-.234c.27-.162.58-.261.919-.261zm.72 1.047l-.05.39-.002.012v.013l-.013.414v.025l.016.236.519-.034-.014-.218.01-.382v-.005l.05-.385-.516-.066zm-1.44.005l-.516.066.048.374.012.394-.016.22.52.032.017-.237v-.023l-.014-.414v-.025l-.05-.387z"/>
    </g>
    <defs>
        <clipPath id="prefix__clip0">
            <path fill="#fff" d="M0 0H25V25H0z"/>
        </clipPath>
    </defs>
</svg>
