<svg xmlns="http://www.w3.org/2000/svg" width="25" height="25" fill="none" viewBox="0 0 25 25">
    <path fill="#000" d="M12.45 23.232c.125 0 .225-.05.3-.126.075-.076.125-.202.125-.303v-1.01c1.525-.05 3-.455 4.35-1.162l.5.884c.125.202.4.278.6.152 1.7-1.01 3.15-2.45 4.125-4.192.05-.101.075-.228.05-.329-.025-.1-.1-.202-.2-.277l-.875-.505c.7-1.339 1.1-2.829 1.15-4.344h1c.125 0 .225-.05.3-.126.075-.101.125-.227.125-.328 0-1.995-.525-3.965-1.525-5.707-.125-.202-.4-.278-.6-.152L21 6.212c-.8-1.288-1.9-2.399-3.175-3.207l.5-.884c.05-.1.075-.227.05-.328-.025-.101-.1-.202-.2-.278C16.475.53 14.525 0 12.55 0c-.125 0-.225.05-.3.126-.075.076-.125.202-.125.303v1.01c-1.525.05-3 .455-4.325 1.162l-.5-.884c-.125-.202-.4-.278-.6-.151-1.725 1.01-3.175 2.474-4.175 4.242l-.05.076v.328L3.6 6.87c-.7 1.338-1.1 2.828-1.15 4.343h-1c-.125 0-.225.05-.3.126-.075.076-.125.202-.125.303 0 1.995.525 3.965 1.525 5.708.125.201.4.277.6.151l.875-.505c.825 1.288 1.9 2.399 3.175 3.207l-.5.884c-.05.1-.075.227-.05.328.025.101.1.202.2.278 1.675 1.01 3.625 1.54 5.6 1.54zm4.875-3.51c-.075 0-.15.025-.225.05-1.375.809-2.95 1.213-4.55 1.238-.225 0-.425.202-.425.43v1.01c-1.625-.051-3.225-.48-4.65-1.263l.5-.884c.05-.101.075-.227.05-.328-.025-.101-.1-.202-.2-.278-1.375-.808-2.525-1.97-3.35-3.384-.125-.202-.4-.278-.575-.151l-.875.505c-.775-1.465-1.2-3.081-1.25-4.723h1c.25 0 .425-.202.425-.429 0-1.616.425-3.182 1.2-4.57.125-.203.05-.48-.15-.581l-.875-.505C4.25 4.444 5.425 3.258 6.8 2.374l.5.858c.125.202.4.278.6.152 1.375-.808 2.95-1.238 4.55-1.238.225 0 .425-.202.425-.429v-.96c1.625.076 3.225.48 4.65 1.263l-.5.884c-.125.202-.05.48.15.606 1.375.808 2.55 1.995 3.35 3.384.125.202.4.278.6.151L22 6.54c.75 1.415 1.2 3.056 1.25 4.697h-1c-.225 0-.425.202-.425.43 0 1.616-.425 3.181-1.2 4.596-.125.202-.05.48.15.606l.875.505c-.875 1.414-2.05 2.6-3.425 3.46l-.5-.86c-.1-.15-.25-.252-.4-.252zM12.5 15.227c1.975 0 3.575-1.616 3.575-3.61 0-1.996-1.6-3.612-3.575-3.612s-3.575 1.616-3.575 3.611 1.6 3.611 3.575 3.611zm0-6.464c1.55 0 2.825 1.287 2.825 2.853 0 1.566-1.275 2.854-2.825 2.854-1.55 0-2.825-1.288-2.825-2.854S10.95 8.763 12.5 8.763z"/>
</svg>
