<svg xmlns="http://www.w3.org/2000/svg" width="25" height="25" fill="none" viewBox="0 0 25 25">
    <path fill="#000" d="M23.828.781H13.672c-.104 0-.203.041-.276.115-.074.073-.115.172-.115.276v21.875c0 .104.041.203.115.276.073.073.172.114.276.114h.39v.782h.782v-.782h7.812v.782h.782v-.782h.39c.104 0 .203-.04.276-.114.074-.073.115-.172.115-.276V1.172c0-.104-.041-.203-.115-.276-.073-.074-.172-.115-.276-.115zm-.39 21.875h-9.375V8.984h9.374v13.672zm0-14.453h-9.375v-6.64h9.374v6.64z"/>
    <path fill="#000" d="M16.016 3.516h-.782v3.906h.782V3.516zM16.016 9.766h-.782v5.468h.782V9.766zM1.172 23.438h.39v.78h.782v-.78h8.594v.78h.78v-.78h.391c.104 0 .203-.042.277-.115.073-.073.114-.172.114-.276V9.375c0-.104-.041-.203-.114-.276-.074-.073-.173-.115-.277-.115H1.172c-.104 0-.203.042-.276.115-.074.073-.115.172-.115.276v13.672c0 .104.041.203.115.276.073.073.172.114.276.114zm.39-13.672H11.72v2.343H1.563V9.766zm0 3.125H11.72v9.765H1.563v-9.765z"/>
    <path fill="#000" d="M6.64 13.281c-.85 0-1.68.252-2.387.724-.706.473-1.257 1.144-1.582 1.929-.325.785-.41 1.649-.245 2.482.166.834.575 1.6 1.176 2.2.601.601 1.367 1.01 2.2 1.176.834.166 1.698.081 2.483-.244.785-.325 1.456-.876 1.928-1.583.473-.706.725-1.537.725-2.387-.002-1.14-.455-2.231-1.26-3.037-.806-.805-1.898-1.258-3.037-1.26zm0 7.813c-.561 0-1.115-.133-1.615-.39-.5-.258-.93-.631-1.256-1.09-.325-.457-.536-.987-.615-1.544-.079-.556-.023-1.123.163-1.654.185-.53.496-1.008.904-1.394.409-.386.904-.668 1.444-.823.54-.155 1.11-.178 1.661-.068.551.11 1.068.352 1.506.703l-.555.557c-.406-.309-.89-.497-1.397-.545-.508-.048-1.019.046-1.476.273-.456.226-.841.575-1.11 1.008-.27.433-.412.933-.413 1.443 0 .51.14 1.01.409 1.443.267.434.65.784 1.107 1.012.456.228.967.324 1.474.278.508-.047.993-.234 1.4-.54l.561.56c-.621.5-1.394.771-2.191.77zm.896-2.068l.177.177c-.294.196-.636.308-.989.325-.353.016-.704-.063-1.015-.23-.312-.167-.572-.416-.753-.72-.181-.302-.277-.65-.277-1.003 0-.353.096-.7.278-1.003.182-.303.442-.551.754-.718.312-.166.662-.245 1.015-.228.353.017.695.13.99.325l-.18.18c-.073.072-.114.172-.114.275v2.344c0 .104.041.203.114.276zm1.849.742l-1.182-1.18v-2.02l1.182-1.182c.5.622.771 1.395.771 2.192 0 .797-.272 1.57-.771 2.192v-.002zM3.125 10.547h-.781v.781h.781v-.781zM4.688 10.547h-.782v.781h.781v-.781zM6.25 10.547h-.781v.781h.781v-.781zM10.938 10.547H8.594v.781h2.344v-.781zM1.172 8.203h10.937c.104 0 .203-.041.277-.114.073-.074.114-.173.114-.277v-6.64c0-.104-.041-.203-.114-.276-.074-.074-.173-.115-.277-.115H1.172c-.104 0-.203.041-.276.115-.074.073-.115.172-.115.276v6.64c0 .104.041.203.115.277.073.073.172.114.276.114zm8.203-6.64h2.344v5.859H9.375v-5.86zm-7.813 0h7.032v5.859H1.563v-5.86z"/>
    <path fill="#000" d="M10.938 2.344h-.782v.781h.781v-.781zM10.938 3.906h-.782v.781h.781v-.78zM7.422 2.344H2.734c-.103 0-.203.04-.276.114-.073.073-.114.173-.114.276V6.25c0 .104.04.203.114.276.073.073.173.115.276.115h4.688c.103 0 .203-.042.276-.115.073-.073.114-.172.114-.276V2.734c0-.103-.04-.203-.114-.276-.073-.073-.173-.114-.276-.114zm-.39 3.515H3.124V3.125h3.906v2.734zM10.547 5.664c-.116 0-.23.034-.326.099-.096.064-.171.156-.216.263-.044.107-.055.225-.033.338.023.114.079.218.16.3.082.082.187.138.3.16.114.023.232.012.34-.033.106-.044.198-.12.262-.215.064-.097.099-.21.099-.326 0-.155-.062-.304-.172-.414-.11-.11-.259-.172-.414-.172zm0 .781c-.039 0-.077-.011-.109-.033-.032-.021-.057-.052-.072-.087-.014-.036-.018-.075-.01-.113.007-.038.026-.073.053-.1.027-.027.062-.046.1-.054.038-.007.077-.003.113.012.035.014.066.04.087.071.022.033.033.07.033.109 0 .052-.02.101-.057.138-.037.037-.086.057-.138.057z"/>
</svg>
