<svg xmlns="http://www.w3.org/2000/svg" width="25" height="25" fill="none" viewBox="0 0 25 25">
    <path fill="#000" d="M22.05 24.507c-.036 0-.071-.005-.106-.014L9.397 20.936c-.101-.028-.186-.096-.237-.189-.052-.092-.064-.201-.036-.304l2.398-8.75c.441-1.614 1.715-2.851 3.32-3.226.138-.038.287.004.386.11.1.105.135.258.09.398-.044.139-.16.243-.301.27-1.324.308-2.376 1.33-2.74 2.66l-2.292 8.37 11.792 3.343 2.293-8.366c.364-1.331-.016-2.759-.992-3.72-.101-.099-.142-.245-.108-.383.034-.138.138-.247.272-.286.135-.04.28-.003.38.096 1.183 1.165 1.644 2.894 1.202 4.507l-2.397 8.75c-.047.172-.201.291-.377.291z"/>
    <path fill="#000" d="M17.016 12.35h-.032c-.118-.01-.225-.073-.292-.172l-2.086-3.094c-.085-.125-.092-.288-.019-.42l1.436-2.601c.062-.113.174-.188.3-.202.125-.014.25.035.334.132l2.906 3.31c.137.155.132.391-.01.541l-2.256 2.385c-.074.078-.175.121-.281.121zM15.39 8.837l1.676 2.485 1.67-1.766-2.3-2.618-1.047 1.899z"/>
    <path fill="#000" d="M19.991 13.194c-.182 0-.34-.127-.383-.308l-.718-3.23c-.046-.204.07-.409.267-.47l4.171-1.304c.121-.038.253-.014.353.064.1.079.158.201.154.33l-.094 2.982c-.005.152-.094.288-.23.35l-3.358 1.55c-.051.024-.106.036-.162.036zm-.257-3.354l.532 2.39 2.698-1.245.069-2.176-3.3 1.03z"/>
    <path fill="#000" d="M23.444 8.663c-.036 0-.071-.005-.106-.015L16.26 6.64c-.135-.038-.239-.147-.274-.285-.035-.138.005-.284.105-.384.1-.1.245-.137.38-.099l7.076 2.009c.188.054.308.24.281.438-.026.196-.191.343-.386.344l.002-.001zM15.822 22.562c-.035 0-.071-.005-.105-.015-.1-.028-.186-.096-.237-.188-.051-.093-.064-.202-.036-.304l3.45-12.597c.063-.207.276-.326.481-.268.205.058.327.272.275.482L16.2 22.27c-.047.173-.202.293-.378.293zM19.663 16.624c.25-.248.253-.655.01-.908-.245-.253-.645-.257-.894-.01-.249.25-.253.656-.009.91.244.252.644.256.893.008zM18.898 19.654c.003-.355-.277-.645-.625-.648-.35-.004-.635.28-.638.635-.004.355.276.645.625.649.349.004.634-.281.638-.636zM6.852 16.286c-.163 0-.309-.102-.367-.257L2.043 4.126c-.037-.1-.034-.209.009-.305.043-.097.121-.172.219-.21L11.398.085c.098-.039.207-.035.302.01.095.043.17.123.206.222l2.997 8.032c.077.207-.026.438-.23.516-.204.079-.432-.026-.508-.234L11.309.972 2.915 4.213l4.167 11.16 4.026-1.554c.13-.05.278-.026.387.064.108.09.161.232.139.373-.022.14-.117.258-.248.309L6.992 16.26c-.045.017-.092.026-.14.026z"/>
    <path fill="#000" d="M6.977 5.275c-1.248 0-2.367-.784-2.812-1.97-.067-.204.036-.425.233-.501.197-.076.418.02.5.218.275.763.932 1.317 1.72 1.45.788.134 1.586-.174 2.089-.806.502-.631.633-1.489.34-2.245-.066-.204.036-.425.234-.5.197-.077.418.02.5.217.35.938.224 1.991-.335 2.817-.56.827-1.483 1.32-2.469 1.322v-.002zM14.507 6.187c-.056 0-.111-.012-.162-.035l-1.185-.548c-.133-.056-.225-.18-.24-.326-.017-.145.047-.287.164-.37.118-.084.27-.096.4-.031l.827.381 1.144-2.573L11.395.82c-.19-.095-.271-.326-.184-.522.087-.196.31-.286.506-.205l4.42 2.032c.196.091.284.327.195.528l-1.468 3.3c-.063.142-.203.234-.357.234v.001zM3.664 10.38c-.056 0-.11-.012-.162-.035L.26 8.852C.163 8.81.089 8.73.052 8.63c-.037-.099-.034-.209.009-.305L2.058 3.83c.094-.193.32-.276.513-.187.193.089.282.317.201.515L.94 8.29l2.529 1.164.375-.842c.054-.135.177-.23.32-.245.142-.016.282.048.364.167.082.12.094.276.03.406l-.536 1.206c-.064.143-.204.234-.358.235h.001z"/>
</svg>
