<svg xmlns="http://www.w3.org/2000/svg" width="25" height="25" fill="none" viewBox="0 0 25 25">
    <path fill="#000" d="M22.672 9.517h-2.75V1.314c0-.065-.026-.128-.073-.175-.047-.046-.11-.072-.177-.072H5.32c-.066 0-.13.026-.177.072-.047.047-.073.11-.073.175v8.203H2.32c-.066 0-.13.026-.177.073-.047.046-.073.11-.073.175v13.133c0 .066.026.13.073.175.047.047.11.073.177.073h1.035v.2c0 .12.024.24.07.35.047.112.116.212.202.297.086.085.189.152.301.197.113.045.233.068.355.067h.907c.12 0 .24-.023.352-.069.112-.046.213-.113.299-.197.085-.085.153-.185.199-.296.046-.11.07-.229.07-.349v-.2h1.035c.066 0 .13-.026.177-.073.047-.046.073-.109.073-.175v-.767H17.61v.767c0 .066.026.13.073.175.047.047.11.073.177.073h1.035v.2c0 .242.097.473.269.644.172.17.405.267.648.267h.908c.12 0 .24-.023.352-.069.112-.046.213-.113.299-.197.085-.085.153-.185.199-.296.046-.11.07-.229.07-.349v-.2h1.035c.066 0 .13-.026.177-.073.047-.046.073-.109.073-.175V9.765c0-.033-.006-.065-.02-.096-.012-.03-.03-.057-.054-.08s-.051-.041-.082-.054c-.03-.012-.063-.018-.096-.018zM5.57 1.562h13.86v7.955h-1.57c-.066 0-.13.026-.177.073-.047.046-.073.11-.073.175v5.074c-1.577-.816-3.33-1.242-5.109-1.242s-3.532.426-5.108 1.242V9.765c0-.066-.027-.129-.074-.175-.047-.047-.11-.073-.176-.073H5.57V1.562zm1.82 13.837c1.563-.859 3.321-1.31 5.109-1.31 1.787 0 3.545.451 5.109 1.31v2.071H7.39V15.4zm-1.782 7.947c0 .11-.045.216-.124.294-.078.078-.185.122-.296.122h-.905c-.112 0-.219-.044-.297-.122-.08-.078-.123-.183-.123-.294v-.2h1.75l-.005.2zm1.285-.695H2.578V10.012H6.89v12.639h.003zm.5-1.015v-3.67H17.61v3.67H7.393zm13.75 1.713c0 .055-.012.109-.034.16-.021.05-.053.096-.092.134-.04.039-.086.069-.138.09-.051.02-.106.03-.162.03h-.904c-.112 0-.219-.045-.297-.123-.08-.078-.123-.183-.123-.294v-.2h1.75v.203zm1.284-.696H18.11v-12.64h4.313l.005 12.64z"/>
    <path fill="#000" d="M16.47 19.554H8.407c-.066 0-.13.027-.176.073-.047.046-.074.11-.074.175 0 .066.027.129.074.175.047.046.11.072.176.072h8.063c.066 0 .13-.026.177-.072.047-.046.073-.11.073-.175 0-.066-.026-.129-.073-.175-.047-.046-.11-.073-.177-.073z"/>
</svg>
