<svg xmlns="http://www.w3.org/2000/svg" width="25" height="25" fill="none" viewBox="0 0 25 25">
    <path fill="#000" d="M2.586 12.931h.862v10.345h18.104V12.93h.862V7.759h-4.638c.723-.632 1.19-1.551 1.19-2.587 0-1.903-1.544-3.448-3.449-3.448-1.308 0-2.432.737-3.017 1.812-.585-1.074-1.709-1.812-3.017-1.812-1.905 0-3.449 1.545-3.449 3.448 0 1.036.467 1.955 1.19 2.587H2.586v5.172zm10.345-7.759c0-1.425 1.16-2.586 2.586-2.586s2.586 1.16 2.586 2.586-1.16 2.587-2.586 2.587h-2.586V5.172zm0 3.449h8.62v3.448h-8.62V8.62zm0 4.31h7.759v9.483H12.93V12.93zm-.862 9.483H4.31V12.93h7.759v9.483zM6.897 5.172c0-1.425 1.16-2.586 2.586-2.586s2.586 1.16 2.586 2.586V7.76H9.483c-1.426 0-2.586-1.16-2.586-2.587zM3.448 8.621h8.62v3.448h-8.62V8.62z"/>
</svg>
