<svg xmlns="http://www.w3.org/2000/svg" width="25" height="25" fill="none" viewBox="0 0 25 25">
    <path fill="#000" d="M1.172 20.846h2.656v2.616c0 .102.041.2.115.271.073.073.172.113.276.113H8.28c.104 0 .203-.04.276-.113.074-.072.115-.17.115-.271v-2.616h.87l2.67 2.875c.036.04.08.071.13.093.05.021.104.032.158.032.054 0 .108-.01.158-.032s.094-.053.13-.093l9.383-10.106c1.315-1.467 2.041-3.356 2.041-5.313 0-1.957-.726-3.846-2.04-5.314-.6-.67-1.332-1.214-2.152-1.594-.821-.381-1.712-.592-2.62-.62-.906-.028-1.809.128-2.652.458-.843.33-1.608.827-2.248 1.46-.64-.633-1.405-1.13-2.248-1.46C9.41.902 8.506.745 7.6.772c-.907.028-1.798.239-2.62.62-.82.38-1.552.923-2.151 1.594C1.514 4.453.788 6.343.788 8.3c0 1.957.726 3.846 2.04 5.313l1 1.08v1.384H1.172c-.104 0-.203.04-.276.113-.074.072-.115.17-.115.272v4c0 .102.041.2.115.271.073.073.172.113.276.113zm2.233-7.752C2.22 11.771 1.564 10.066 1.564 8.3c0-1.766.655-3.47 1.841-4.794.55-.618 1.227-1.113 1.986-1.452.76-.34 1.584-.515 2.418-.515.833 0 1.658.176 2.417.515.76.339 1.436.834 1.986 1.452.037.038.082.068.132.088.05.02.102.031.156.031.054 0 .107-.01.156-.03.05-.021.095-.051.132-.09.55-.617 1.226-1.112 1.986-1.451.76-.34 1.584-.515 2.417-.515.834 0 1.659.176 2.418.515.76.339 1.436.834 1.985 1.452 1.187 1.324 1.842 3.028 1.842 4.794 0 1.766-.655 3.47-1.841 4.794L12.5 22.892l-1.899-2.046h.727c.104 0 .203-.04.276-.113.074-.072.115-.17.115-.271v-4c0-.102-.041-.2-.115-.272-.073-.073-.172-.113-.276-.113H8.672v-2.615c0-.102-.041-.2-.115-.272-.073-.072-.172-.113-.276-.113H4.22c-.104 0-.203.04-.276.113-.074.072-.115.17-.115.272v.088l-.423-.456zm-1.842 3.752h2.656c.103 0 .203-.04.276-.113.073-.072.114-.17.114-.271v-2.616h3.282v2.616c0 .102.04.2.114.271.073.073.173.113.276.113h2.656v3.23H8.281c-.103 0-.203.041-.276.114-.073.072-.114.17-.114.272v2.615H4.609v-2.615c0-.102-.04-.2-.114-.272-.073-.073-.173-.113-.276-.113H1.562v-3.23z"/>
    <path fill="#000" d="M11.493 10.517l1.335-3.594 1.785 5.126c.026.076.076.142.142.189.066.046.146.071.227.071h.03c.086-.006.167-.04.232-.097.064-.057.107-.133.123-.217l1.352-7.285.88 4.213c.018.087.066.165.135.221.07.056.157.087.247.087h4.285v-.77H18.3l-1.222-5.846c-.017-.086-.065-.164-.135-.22-.07-.057-.157-.087-.247-.087h-.005c-.09 0-.178.033-.247.09-.07.058-.116.137-.132.225l-1.446 7.782-1.656-4.76c-.026-.076-.076-.141-.141-.188-.066-.046-.144-.072-.225-.072-.08.003-.157.029-.222.073-.066.045-.117.107-.149.18L10.853 10H8.985v.77h2.143c.08 0 .158-.025.223-.07.066-.045.116-.11.143-.183z"/>
</svg>
