<svg xmlns="http://www.w3.org/2000/svg" width="25" height="25" fill="none" viewBox="0 0 25 25">
    <path fill="#000" d="M1.136 18.411h1.156V6.024c0-.674.543-1.223 1.21-1.223h17.996c.667 0 1.21.549 1.21 1.223v12.387h1.156c.125 0 .227.103.227.23 0 1.063-.837 1.834-1.991 1.834H2.9c-1.154 0-1.99-.771-1.99-1.834 0-.127.1-.23.226-.23zM22.253 6.024c0-.421-.339-.763-.755-.763H3.502c-.417 0-.755.342-.755.763v12.387h19.506V6.024zM10.858 18.871c.07.09.176.15.298.15h2.687c.122 0 .23-.06.298-.15h-3.283zM2.9 20.015h19.2c.816 0 1.41-.46 1.519-1.144H14.643c-.1.352-.42.61-.8.61h-2.687c-.379 0-.7-.258-.8-.61H1.382c.109.684.703 1.144 1.519 1.144z"/>
    <path fill="#000" d="M3.52 17.457V6.214c0-.127.102-.23.228-.23h17.504c.126 0 .228.103.228.23v11.243c0 .127-.102.23-.228.23H3.748c-.126 0-.228-.103-.228-.23zm.455-.23h17.05V6.445H3.975v10.784z"/>
</svg>
