<svg xmlns="http://www.w3.org/2000/svg" width="64" height="56" fill="none" viewBox="0 0 64 56">
    <path fill="#62B6D3" d="M56.474 13.234h-8.608l-2.313-4.44c-.854-1.619-2.697-2.669-4.725-2.669h-18.33c-2.016 0-3.871 1.05-4.712 2.669l-2.326 4.44H6.852c-2.87 0-5.244 2.057-5.244 4.594v27.453c0 2.538 2.375 4.594 5.244 4.594h49.622c2.87 0 5.244-2.067 5.244-4.594V17.828c0-2.537-2.374-4.594-5.244-4.594zm2.276 32.047c0 1.083-1.051 1.969-2.276 1.969H6.852c-1.224 0-2.276-.886-2.276-1.969V17.828c0-1.083 1.052-1.969 2.276-1.969h9.56c.582 0 1.102-.295 1.349-.765l2.721-5.196c.359-.689 1.15-1.148 2.016-1.148H40.84c.866 0 1.658.448 2.016 1.148l2.721 5.196c.248.46.767.765 1.349.765h9.56c1.225 0 2.276.875 2.276 1.97V45.28h-.012z"/>
    <path fill="#62B6D3" d="M31.663 16.68c-8.695 0-15.782 6.256-15.782 13.956 0 7.689 7.075 13.956 15.782 13.956 8.695 0 15.782-6.256 15.782-13.956 0-7.7-7.087-13.956-15.782-13.956zm0 25.276c-7.062 0-12.814-5.086-12.814-11.331 0-6.245 5.752-11.32 12.814-11.32s12.814 5.075 12.814 11.32-5.752 11.331-12.814 11.331zM13.605 19.688h-4.7c-.816 0-1.484.59-1.484 1.312 0 .722.668 1.313 1.484 1.313h4.7c.816 0 1.484-.591 1.484-1.313s-.668-1.313-1.484-1.313z"/>
</svg>
