<svg xmlns="http://www.w3.org/2000/svg" width="92" height="15" fill="none" viewBox="0 0 92 15">
    <path fill="#4EABF8" d="M7.127 10.096l-3.491 2.132.949-3.979-3.106-2.66 4.077-.327 1.57-3.777 1.572 3.777 4.077.326L9.67 8.25l.949 3.98-3.491-2.133zM26.563 10.096l-3.49 2.132.948-3.979-3.106-2.66 4.078-.327 1.57-3.777 1.571 3.777 4.078.326-3.107 2.661.95 3.98-3.492-2.133zM46 10.096l-3.49 2.132.948-3.979-3.106-2.66 4.077-.327L46 1.485l1.57 3.777 4.079.326-3.107 2.661.949 3.98-3.49-2.133zM65.437 10.096l-3.491 2.132.949-3.979-3.106-2.66 4.077-.327 1.57-3.777 1.571 3.777 4.078.326L67.98 8.25l.949 3.98-3.491-2.133zM84.873 10.096l-3.49 2.132.948-3.979-3.106-2.66 4.077-.327 1.571-3.777 1.571 3.777 4.078.326-3.107 2.661.95 3.98-3.492-2.133z"/>
</svg>
